
<svg xmlns="http://www.w3.org/2000/svg" style="display:none">
  <defs>
    <g id="_base" fill="none" stroke="currentColor" stroke-width="1.5" stroke-linecap="square" stroke-linejoin="miter"></g>
  </defs>

  <symbol id="overview" viewBox="0 0 24 24" fill="none" stroke="currentColor" stroke-width="1.5" stroke-linecap="square">
    <rect x="3" y="3" width="8" height="8"></rect>
    <rect x="13" y="3" width="8" height="4"></rect>
    <rect x="13" y="9" width="8" height="12"></rect>
    <rect x="3" y="13" width="8" height="8"></rect>
  </symbol>

  <symbol id="hives" viewBox="0 0 24 24" fill="none" stroke="currentColor" stroke-width="1.5" stroke-linecap="square">
    <polygon points="12,2 20,7 20,17 12,22 4,17 4,7"></polygon>
    <polygon points="12,7 16,9.5 16,14.5 12,17 8,14.5 8,9.5"></polygon>
  </symbol>

  <symbol id="agents" viewBox="0 0 24 24" fill="none" stroke="currentColor" stroke-width="1.5" stroke-linecap="square">
    <circle cx="12" cy="6" r="2.5"></circle>
    <circle cx="5" cy="17" r="2.5"></circle>
    <circle cx="19" cy="17" r="2.5"></circle>
    <line x1="12" y1="8.5" x2="6.5" y2="14.8"></line>
    <line x1="12" y1="8.5" x2="17.5" y2="14.8"></line>
    <line x1="7.3" y1="17" x2="16.7" y2="17"></line>
  </symbol>

  <symbol id="automations" viewBox="0 0 24 24" fill="none" stroke="currentColor" stroke-width="1.5" stroke-linecap="square">
    <rect x="3" y="6" width="6" height="12"></rect>
    <rect x="15" y="6" width="6" height="12"></rect>
    <line x1="9" y1="12" x2="15" y2="12"></line>
    <polyline points="13,10 15,12 13,14"></polyline>
  </symbol>

  <symbol id="workflows" viewBox="0 0 24 24" fill="none" stroke="currentColor" stroke-width="1.5" stroke-linecap="square">
    <rect x="3" y="3" width="6" height="6"></rect>
    <rect x="15" y="3" width="6" height="6"></rect>
    <rect x="9" y="15" width="6" height="6"></rect>
    <path d="M6 9 V12 H18 V9"></path>
    <line x1="12" y1="12" x2="12" y2="15"></line>
  </symbol>

  <symbol id="runs" viewBox="0 0 24 24" fill="none" stroke="currentColor" stroke-width="1.5" stroke-linecap="square">
    <circle cx="12" cy="12" r="9"></circle>
    <polyline points="12,7 12,12 16,14"></polyline>
  </symbol>

  <symbol id="knowledge" viewBox="0 0 24 24" fill="none" stroke="currentColor" stroke-width="1.5" stroke-linecap="square">
    <path d="M4 4 H11 V20 H4 Z"></path>
    <path d="M13 4 H20 V20 H13 Z"></path>
    <line x1="6" y1="8" x2="9" y2="8"></line>
    <line x1="6" y1="12" x2="9" y2="12"></line>
    <line x1="15" y1="8" x2="18" y2="8"></line>
    <line x1="15" y1="12" x2="18" y2="12"></line>
  </symbol>

  <symbol id="settings" viewBox="0 0 24 24" fill="none" stroke="currentColor" stroke-width="1.5" stroke-linecap="square">
    <circle cx="12" cy="12" r="3"></circle>
    <path d="M12 2 V5 M12 19 V22 M2 12 H5 M19 12 H22 M5 5 L7 7 M17 17 L19 19 M5 19 L7 17 M17 7 L19 5"></path>
  </symbol>

  <symbol id="search" viewBox="0 0 24 24" fill="none" stroke="currentColor" stroke-width="1.5" stroke-linecap="square">
    <circle cx="11" cy="11" r="6"></circle>
    <line x1="15.5" y1="15.5" x2="20" y2="20"></line>
  </symbol>

  <symbol id="bell" viewBox="0 0 24 24" fill="none" stroke="currentColor" stroke-width="1.5" stroke-linecap="square">
    <path d="M5 17 V12 a7 7 0 0 1 14 0 V17 L21 19 H3 Z"></path>
    <path d="M10 21 a2 2 0 0 0 4 0"></path>
  </symbol>

  <symbol id="add" viewBox="0 0 24 24" fill="none" stroke="currentColor" stroke-width="1.5" stroke-linecap="square">
    <line x1="12" y1="4" x2="12" y2="20"></line>
    <line x1="4" y1="12" x2="20" y2="12"></line>
  </symbol>

  <symbol id="play" viewBox="0 0 24 24" fill="none" stroke="currentColor" stroke-width="1.5" stroke-linecap="square" stroke-linejoin="miter">
    <polygon points="6,4 20,12 6,20"></polygon>
  </symbol>

  <symbol id="pause" viewBox="0 0 24 24" fill="none" stroke="currentColor" stroke-width="1.5" stroke-linecap="square">
    <rect x="6" y="4" width="4" height="16"></rect>
    <rect x="14" y="4" width="4" height="16"></rect>
  </symbol>

  <symbol id="approve" viewBox="0 0 24 24" fill="none" stroke="currentColor" stroke-width="1.5" stroke-linecap="square">
    <polygon points="12,2 20,7 20,17 12,22 4,17 4,7"></polygon>
    <polyline points="8,12 11,15 16,9"></polyline>
  </symbol>

  <symbol id="reject" viewBox="0 0 24 24" fill="none" stroke="currentColor" stroke-width="1.5" stroke-linecap="square">
    <polygon points="12,2 20,7 20,17 12,22 4,17 4,7"></polygon>
    <line x1="9" y1="9" x2="15" y2="15"></line>
    <line x1="15" y1="9" x2="9" y2="15"></line>
  </symbol>

  <symbol id="filter" viewBox="0 0 24 24" fill="none" stroke="currentColor" stroke-width="1.5" stroke-linecap="square">
    <polyline points="3,5 21,5 14,13 14,20 10,18 10,13"></polyline>
  </symbol>

  <symbol id="sort" viewBox="0 0 24 24" fill="none" stroke="currentColor" stroke-width="1.5" stroke-linecap="square">
    <line x1="4" y1="6" x2="20" y2="6"></line>
    <line x1="6" y1="12" x2="18" y2="12"></line>
    <line x1="9" y1="18" x2="15" y2="18"></line>
  </symbol>

  <symbol id="more" viewBox="0 0 24 24" fill="none" stroke="currentColor" stroke-width="1.5" stroke-linecap="square">
    <circle cx="5" cy="12" r="1"></circle>
    <circle cx="12" cy="12" r="1"></circle>
    <circle cx="19" cy="12" r="1"></circle>
  </symbol>

  <symbol id="hex" viewBox="0 0 24 24" fill="none" stroke="currentColor" stroke-width="1.5" stroke-linecap="square">
    <polygon points="12,2 20,7 20,17 12,22 4,17 4,7"></polygon>
  </symbol>

  <symbol id="hex-h" viewBox="0 0 24 24" fill="none" stroke="currentColor" stroke-width="1.5" stroke-linecap="square">
    <polygon points="12,2 20,7 20,17 12,22 4,17 4,7"></polygon>
    <line x1="9" y1="8" x2="9" y2="16"></line>
    <line x1="15" y1="8" x2="15" y2="16"></line>
    <line x1="9" y1="12" x2="15" y2="12"></line>
  </symbol>

  <symbol id="swarm" viewBox="0 0 24 24" fill="none" stroke="currentColor" stroke-width="1.5" stroke-linecap="square">
    <polygon points="12,2 17,5 17,11 12,14 7,11 7,5"></polygon>
    <polygon points="4,12 8,14 8,19 4,21 0,19 0,14" transform="translate(2,1)"></polygon>
    <polygon points="4,12 8,14 8,19 4,21 0,19 0,14" transform="translate(14,1)"></polygon>
  </symbol>

  <symbol id="honey-drop" viewBox="0 0 24 24" fill="none" stroke="currentColor" stroke-width="1.5" stroke-linecap="square">
    <path d="M12 3 C 12 3 6 11 6 15 a6 6 0 0 0 12 0 C 18 11 12 3 12 3 Z"></path>
  </symbol>

  <symbol id="chart" viewBox="0 0 24 24" fill="none" stroke="currentColor" stroke-width="1.5" stroke-linecap="square">
    <polyline points="3,18 9,12 13,15 21,5"></polyline>
    <polyline points="3,21 21,21"></polyline>
  </symbol>

  <symbol id="shield" viewBox="0 0 24 24" fill="none" stroke="currentColor" stroke-width="1.5" stroke-linecap="square">
    <path d="M12 3 L20 6 V13 a8 8 0 0 1 -8 8 a8 8 0 0 1 -8 -8 V6 Z"></path>
    <polyline points="9,12 11,14 15,10"></polyline>
  </symbol>

  <symbol id="layers" viewBox="0 0 24 24" fill="none" stroke="currentColor" stroke-width="1.5" stroke-linecap="square">
    <polygon points="12,3 21,8 12,13 3,8"></polygon>
    <polyline points="3,12 12,17 21,12"></polyline>
    <polyline points="3,16 12,21 21,16"></polyline>
  </symbol>

  <symbol id="db" viewBox="0 0 24 24" fill="none" stroke="currentColor" stroke-width="1.5" stroke-linecap="square">
    <ellipse cx="12" cy="5" rx="8" ry="2.5"></ellipse>
    <path d="M4 5 V12 a8 2.5 0 0 0 16 0 V5"></path>
    <path d="M4 12 V19 a8 2.5 0 0 0 16 0 V12"></path>
  </symbol>

  <symbol id="sliders" viewBox="0 0 24 24" fill="none" stroke="currentColor" stroke-width="1.5" stroke-linecap="square">
    <line x1="3" y1="6" x2="21" y2="6"></line>
    <line x1="3" y1="12" x2="21" y2="12"></line>
    <line x1="3" y1="18" x2="21" y2="18"></line>
    <circle cx="9" cy="6" r="2"></circle>
    <circle cx="15" cy="12" r="2"></circle>
    <circle cx="7" cy="18" r="2"></circle>
  </symbol>

  <symbol id="sparkle" viewBox="0 0 24 24" fill="none" stroke="currentColor" stroke-width="1.5" stroke-linecap="square">
    <path d="M12 3 L13.5 10.5 L21 12 L13.5 13.5 L12 21 L10.5 13.5 L3 12 L10.5 10.5 Z"></path>
  </symbol>
</svg>